<svg width="27" height="27" viewBox="0 0 27 27" fill="none" xmlns="http://www.w3.org/2000/svg">
<path d="M13 5.116C13 4.64267 12.752 4.21467 12.4653 3.83733C12.1668 3.45516 12.0032 2.98493 12 2.5C12 1.11867 13.3427 0 15 0C16.6573 0 18 1.12 18 2.5C18 2.992 17.8293 3.45067 17.5347 3.83733C17.248 4.21467 17 4.64267 17 5.116C17 5.55867 17.3707 5.91333 17.8133 5.88667C20.36 5.73467 22.8667 5.43067 25.3227 4.98533C25.4564 4.96108 25.5938 4.96436 25.7262 4.99498C25.8587 5.02559 25.9835 5.0829 26.0931 5.16339C26.2027 5.24388 26.2947 5.34587 26.3635 5.46312C26.4323 5.58037 26.4765 5.71043 26.4933 5.84533C26.7951 8.25728 26.9624 10.6841 26.9947 13.1147C26.9959 13.2308 26.974 13.3461 26.9303 13.4537C26.8866 13.5613 26.8219 13.6592 26.74 13.7416C26.6581 13.8239 26.5607 13.8892 26.4533 13.9336C26.3459 13.978 26.2308 14.0005 26.1147 14C25.6427 14 25.2147 13.752 24.8373 13.4653C24.4552 13.1668 23.9849 13.0032 23.5 13C22.12 13 21 14.3427 21 16C21 17.6573 22.12 19 23.5 19C23.992 19 24.4507 18.8293 24.8373 18.5347C25.2147 18.248 25.6427 18 26.116 18C26.5293 18 26.8587 18.3493 26.828 18.7613C26.6715 20.9266 26.4068 23.0826 26.0347 25.2213C25.9993 25.4241 25.9022 25.6111 25.7566 25.7566C25.6111 25.9022 25.4241 25.9993 25.2213 26.0347C22.7947 26.4573 20.324 26.7453 17.8147 26.8907C17.7096 26.8963 17.6044 26.8804 17.5057 26.844C17.407 26.8076 17.3167 26.7514 17.2404 26.6789C17.1642 26.6063 17.1035 26.519 17.0622 26.4222C17.0208 26.3254 16.9997 26.2212 17 26.116C17 25.6427 17.248 25.2147 17.5347 24.8373C17.8293 24.4507 18 23.992 18 23.5C18 22.12 16.6573 21 15 21C13.3427 21 12 22.12 12 23.5C12 23.992 12.1707 24.4507 12.4653 24.8373C12.752 25.2147 13 25.6427 13 26.116C13.0004 26.2304 12.9778 26.3437 12.9336 26.4492C12.8894 26.5547 12.8245 26.6503 12.7427 26.7302C12.6609 26.8102 12.5638 26.8729 12.4573 26.9147C12.3508 26.9564 12.237 26.9764 12.1227 26.9733C10.0237 26.9141 7.92887 26.7539 5.84533 26.4933C5.71043 26.4765 5.58037 26.4323 5.46312 26.3635C5.34587 26.2947 5.24388 26.2027 5.16339 26.0931C5.0829 25.9835 5.02559 25.8587 4.99498 25.7262C4.96436 25.5938 4.96108 25.4564 4.98533 25.3227C5.376 23.1707 5.65733 20.98 5.824 18.7573C5.83098 18.6602 5.81783 18.5628 5.78537 18.471C5.75291 18.3792 5.70184 18.2952 5.63537 18.2241C5.5689 18.153 5.48846 18.0964 5.39908 18.0578C5.30971 18.0192 5.21333 17.9996 5.116 18C4.64267 18 4.21467 18.248 3.83733 18.5347C3.45067 18.8293 2.992 19 2.5 19C1.11867 19 0 17.6573 0 16C0 14.3427 1.12 13 2.5 13C2.992 13 3.45067 13.1707 3.83733 13.4653C4.21467 13.752 4.64267 14 5.116 14C5.23199 14.0005 5.34693 13.978 5.45412 13.9337C5.56132 13.8894 5.65863 13.8242 5.7404 13.742C5.82217 13.6597 5.88676 13.562 5.93041 13.4545C5.97406 13.3471 5.99591 13.232 5.99467 13.116C5.9655 10.9682 5.82754 8.8232 5.58133 6.68933C5.56389 6.53967 5.58049 6.388 5.62989 6.24565C5.6793 6.10331 5.76024 5.97397 5.86665 5.8673C5.97307 5.76062 6.10221 5.67938 6.24444 5.62963C6.38667 5.57988 6.5383 5.56291 6.688 5.58C8.47867 5.78667 10.292 5.91867 12.124 5.972C12.2382 5.97503 12.3518 5.95512 12.4581 5.91343C12.5645 5.87173 12.6614 5.80912 12.7431 5.72929C12.8248 5.64947 12.8896 5.55405 12.9337 5.4487C12.9779 5.34336 13.0004 5.23022 13 5.116Z" fill="white"/>
</svg>
